<svg width="305" height="245" viewBox="0 0 305 245" fill="none" xmlns="http://www.w3.org/2000/svg">
<path d="M219.333 219.75H27.4167V85.4583H219.333M178.208 0V24.4167H68.5417V0H41.125V24.4167H27.4167C12.2004 24.4167 0 35.2821 0 48.8333V219.75C0 226.226 2.88853 232.436 8.03015 237.015C13.1718 241.594 20.1453 244.167 27.4167 244.167H219.333C226.605 244.167 233.578 241.594 238.72 237.015C243.861 232.436 246.75 226.226 246.75 219.75V48.8333C246.75 42.3576 243.861 36.1472 238.72 31.5681C233.578 26.9891 226.605 24.4167 219.333 24.4167H205.625V0M191.917 134.292H123.375V195.333H191.917V134.292Z" fill="#3286BB"/>
<path d="M198.94 103.595C198.318 104.841 197.234 105.789 195.913 106.23C194.592 106.671 193.151 106.569 191.905 105.947C190.659 105.325 189.711 104.234 189.27 102.913C188.829 101.593 188.931 100.151 189.553 98.9054C190.736 96.5324 192.605 93.9984 195.496 92.0664C198.415 90.1204 202.083 89.0005 206.5 89.0005C210.614 88.9723 214.629 90.26 217.959 92.6754C221.48 95.3144 224 99.4304 224 104.75C224 107.886 223.195 110.56 221.697 112.8C220.262 114.949 218.407 116.391 216.853 117.434C216.09 117.938 215.313 118.4 214.662 118.799L214.62 118.827C214.004 119.186 213.397 119.559 212.8 119.947C212.05 120.387 211.394 120.97 210.868 121.662C210.089 122.804 208.89 123.592 207.533 123.856C206.176 124.119 204.77 123.837 203.62 123.07C202.47 122.304 201.668 121.114 201.39 119.76C201.111 118.406 201.378 116.997 202.132 115.838C203.42 113.99 205.072 112.415 206.976 111.211C207.697 110.742 208.425 110.287 209.167 109.846L209.216 109.818C209.916 109.391 210.49 109.048 211.022 108.691C211.772 108.249 212.431 107.667 212.961 106.976C213.22 106.598 213.5 105.989 213.5 104.75C213.527 104.033 213.373 103.321 213.052 102.679C212.732 102.037 212.255 101.485 211.666 101.075C210.149 100.027 208.344 99.4769 206.5 99.5004C203.917 99.5004 202.335 100.13 201.32 100.809C200.296 101.513 199.475 102.474 198.94 103.595ZM213.5 138C213.5 139.857 212.762 141.637 211.45 142.95C210.137 144.263 208.356 145 206.5 145C204.643 145 202.863 144.263 201.55 142.95C200.237 141.637 199.5 139.857 199.5 138C199.5 136.144 200.237 134.363 201.55 133.05C202.863 131.738 204.643 131 206.5 131C208.356 131 210.137 131.738 211.45 133.05C212.762 134.363 213.5 136.144 213.5 138Z" fill="#3A3D71" stroke="white" stroke-width="1.5"/>
<path d="M241.892 57.5844C240.772 59.8533 238.821 61.5794 236.443 62.3828C234.066 63.1862 231.471 63.0011 229.229 61.8683C226.986 60.7355 225.281 58.7478 224.487 56.3424C223.693 53.9369 223.876 51.3109 224.995 49.0419C227.125 44.7197 230.489 40.1043 235.693 36.5853C240.947 33.0408 247.549 31.0008 255.5 31.0008C262.905 30.9496 270.132 33.295 276.126 37.6945C282.464 42.5012 287 49.9982 287 59.6881C287 65.4 285.551 70.2705 282.855 74.3505C280.272 78.2647 276.933 80.8912 274.135 82.7909C272.762 83.7089 271.363 84.5504 270.192 85.2771L270.116 85.3281C269.008 85.981 267.915 86.6612 266.84 87.3681C265.49 88.1698 264.309 89.231 263.362 90.4918C261.959 92.5714 259.802 94.0071 257.36 94.4873C254.917 94.9675 252.386 94.4535 250.316 93.0568C248.245 91.6601 246.803 89.4935 246.301 87.0273C245.8 84.561 246.28 81.9942 247.637 79.8839C249.956 76.518 252.929 73.6492 256.357 71.4562C257.654 70.602 258.965 69.7733 260.3 68.97L260.389 68.919C261.649 68.1413 262.682 67.5165 263.639 66.8663C264.99 66.0614 266.175 65.0009 267.13 63.7426C267.596 63.0541 268.1 61.9448 268.1 59.6881C268.148 58.3819 267.871 57.0844 267.294 55.9148C266.717 54.7452 265.859 53.741 264.799 52.9944C262.068 51.0855 258.818 50.083 255.5 50.1257C250.85 50.1257 248.003 51.2732 246.176 52.5099C244.332 53.791 242.854 55.5413 241.892 57.5844ZM268.1 120.25C268.1 123.632 266.772 126.875 264.409 129.266C262.046 131.657 258.842 133 255.5 133C252.158 133 248.953 131.657 246.59 129.266C244.227 126.875 242.9 123.632 242.9 120.25C242.9 116.869 244.227 113.626 246.59 111.235C248.953 108.843 252.158 107.5 255.5 107.5C258.842 107.5 262.046 108.843 264.409 111.235C266.772 113.626 268.1 116.869 268.1 120.25Z" fill="#3A3D71" stroke="white" stroke-width="2"/>
<path d="M279.656 140.074C279.052 141.275 277.998 142.189 276.715 142.614C275.433 143.04 274.032 142.942 272.822 142.342C271.612 141.742 270.691 140.69 270.263 139.417C269.834 138.143 269.933 136.753 270.537 135.552C271.686 133.263 273.502 130.82 276.31 128.957C279.146 127.08 282.709 126 287 126C290.996 125.973 294.897 127.215 298.132 129.544C301.552 132.089 304 136.058 304 141.188C304 144.212 303.218 146.79 301.763 148.95C300.369 151.022 298.567 152.413 297.057 153.419C296.316 153.905 295.561 154.35 294.929 154.735L294.888 154.762C294.29 155.108 293.7 155.468 293.12 155.842C292.392 156.266 291.754 156.828 291.243 157.496C290.486 158.597 289.322 159.357 288.004 159.611C286.685 159.865 285.319 159.593 284.202 158.854C283.085 158.114 282.306 156.967 282.036 155.661C281.765 154.356 282.024 152.997 282.757 151.88C284.008 150.098 285.613 148.579 287.462 147.418C288.163 146.966 288.87 146.527 289.591 146.102L289.638 146.075C290.318 145.663 290.876 145.332 291.393 144.988C292.122 144.562 292.761 144 293.276 143.334C293.528 142.97 293.8 142.383 293.8 141.188C293.826 140.496 293.676 139.809 293.365 139.19C293.054 138.571 292.591 138.039 292.018 137.644C290.545 136.634 288.791 136.103 287 136.125C284.491 136.125 282.954 136.733 281.968 137.388C280.973 138.066 280.175 138.992 279.656 140.074ZM293.8 173.25C293.8 175.04 293.084 176.757 291.808 178.023C290.533 179.289 288.803 180 287 180C285.196 180 283.467 179.289 282.192 178.023C280.916 176.757 280.2 175.04 280.2 173.25C280.2 171.46 280.916 169.743 282.192 168.477C283.467 167.211 285.196 166.5 287 166.5C288.803 166.5 290.533 167.211 291.808 168.477C293.084 169.743 293.8 171.46 293.8 173.25Z" fill="#3A3D71" stroke="white" stroke-width="2"/>
</svg>
