<svg width="46" height="46" viewBox="0 0 46 46" fill="none" xmlns="http://www.w3.org/2000/svg">
<g clip-path="url(#clip0_82_50)">
<path d="M29.3284 37.0629C28.2536 40.0441 21.0588 40.9525 13.5681 38.2519C6.07735 35.5512 1.11742 30.2607 2.19223 27.2795L7.70057 15.3898L16.1844 23.3536C16.847 23.9742 17.6129 24.4412 18.4397 24.7393C19.2665 25.0374 20.1613 25.1691 21.0604 25.1116L32.6743 24.3936L29.3284 37.0629Z" fill="#3A3D71" stroke="white"/>
<path d="M26.3066 3.35957C26.8507 3.54586 27.3511 3.83764 27.7904 4.22032L43.9598 18.471C44.5056 18.959 44.6914 19.7969 44.4252 20.5745C44.1589 21.3522 43.4984 21.9002 42.7681 21.9512L38.3282 22.2288C38.7495 24.5925 38.57 27.1547 37.7237 29.6262L36.9829 31.7898C36.2342 33.9765 36.1871 36.4808 36.3505 38.5239C36.4443 39.6743 36.6039 40.83 36.8704 41.9364C36.972 42.341 36.8848 42.7929 36.6294 43.1442C36.3741 43.4955 35.9918 43.6915 35.6083 43.672L30.8878 43.432C30.5767 43.4201 30.2955 43.255 30.1077 42.9928C29.9198 42.7306 29.8453 42.3782 29.905 42.0288C30.4557 38.5356 31.7569 35.6779 32.9118 33.7077C33.5011 32.6879 34.1722 31.6704 34.9259 30.7844L35.5744 28.8903C36.3706 26.565 36.4369 24.1361 35.8492 21.9735C35.3914 20.4834 34.5993 19.1369 33.4858 18.0933L24.5674 9.73187C24.101 9.2969 23.3709 9.39099 22.9398 9.94875C22.5087 10.5065 22.5322 11.3146 22.9986 11.7495L31.9169 20.1109C32.6206 20.7734 33.155 21.6015 33.5102 22.5146L21.2719 23.2789C20.6903 23.312 20.1161 23.2358 19.572 23.0495C19.028 22.8632 18.5275 22.5715 18.0883 22.1888L1.90426 7.95886C1.35582 7.47859 1.1726 6.63304 1.43888 5.85539C1.70515 5.07774 2.36557 4.52967 3.09593 4.47867L24.6067 3.13018C25.1884 3.09708 25.7626 3.17328 26.3066 3.35957Z" fill="#3A3D71" stroke="white"/>
</g>
<defs>
<clipPath id="clip0_82_50">
<rect width="46" height="46" fill="white"/>
</clipPath>
</defs>
</svg>
