<svg width="46" height="46" viewBox="0 0 46 46" fill="none" xmlns="http://www.w3.org/2000/svg">
<g clip-path="url(#clip0_82_43)">
<path d="M30.7662 37.2669L30.7606 37.2882L30.7532 37.3088C30.4249 38.2194 29.6504 38.9162 28.6403 39.4114C27.6268 39.9084 26.3286 40.2276 24.8541 40.3623C21.9028 40.632 18.158 40.1704 14.3529 38.7986C10.5479 37.4267 7.37001 35.3925 5.26975 33.3016C4.22041 32.257 3.42464 31.1828 2.96137 30.1534C2.49967 29.1275 2.34801 28.0969 2.67631 27.1863L2.68376 27.1656L2.69299 27.1457L8.20133 15.256L8.49239 14.6277L8.99721 15.1016L17.4806 23.0651C17.4807 23.0651 17.4807 23.0651 17.4807 23.0651C18.094 23.6396 18.8014 24.0705 19.5637 24.3453C20.3269 24.6205 21.1531 24.7421 21.9829 24.689L21.984 24.6889L33.5979 23.9709L34.2889 23.9282L34.1121 24.5976L30.7662 37.2669Z" fill="#3A3D71" stroke="white"/>
<path d="M38.8303 22.1974C38.859 22.3619 38.8848 22.5273 38.9078 22.6935L38.8303 22.1974ZM38.8303 22.1974L38.3282 22.2288L38.8303 22.1974ZM33.5102 22.5146L33.4791 22.0156L33.2994 22.0268C33.3755 22.1863 33.4458 22.349 33.5102 22.5146ZM33.5102 22.5146L33.0443 22.6959C33.0249 22.6461 33.0049 22.5966 32.9845 22.5474L33.5102 22.5146ZM28.1188 3.8433L28.121 3.84521L1.57486 8.33501L1.90426 7.95886L1.5741 8.33435L1.57449 8.33469C0.847866 7.69808 0.645809 6.62804 0.965838 5.69341C1.28715 4.75504 2.10097 4.04693 3.0611 3.97988L3.06464 3.97965L24.5754 2.63116L24.5754 2.63115L24.5783 2.63099C25.2225 2.59433 25.8615 2.67865 26.4686 2.88653C27.0757 3.09441 27.6323 3.41949 28.1188 3.84331L28.1188 3.8433ZM24.226 10.0972L24.2254 10.0966L24.5674 9.7319L24.2264 10.0975C24.2263 10.0974 24.2261 10.0973 24.226 10.0972ZM35.3688 22.1125C35.3681 22.1099 35.3674 22.1073 35.3667 22.1046L35.8492 21.9735L35.3712 22.1204C35.3704 22.1177 35.3696 22.1151 35.3688 22.1125ZM36.8488 38.4834C36.9412 39.6153 37.0975 40.7434 37.356 41.8171C37.4933 42.3675 37.3741 42.9701 37.0339 43.4382C36.6931 43.907 36.1576 44.2005 35.5829 44.1713L30.8687 43.9316C30.8675 43.9316 30.8663 43.9315 30.8651 43.9315C30.3838 43.9119 29.9678 43.656 29.7012 43.284C29.4285 42.9034 29.3328 42.4144 29.4115 41.948C29.9746 38.3798 31.3027 35.4643 32.4797 33.4561C33.0621 32.4485 33.7294 31.4319 34.4833 30.5335L36.8488 38.4834Z" fill="#3A3D71" stroke="white"/>
<path d="M30.2828 37.1393C29.208 40.1205 22.0132 41.0288 14.5225 38.3282C7.03179 35.6276 2.07186 30.3371 3.14667 27.3559L8.65501 15.4662L17.1388 23.43C17.8014 24.0506 18.5674 24.5176 19.3942 24.8157C20.221 25.1138 21.1157 25.2455 22.0149 25.1879L33.6287 24.4699L30.2828 37.1393Z" fill="url(#paint0_linear_82_43)" stroke="white"/>
<path d="M26.3066 3.35957C26.8507 3.54586 27.3511 3.83764 27.7904 4.22032L43.9598 18.471C44.5056 18.959 44.6914 19.7969 44.4252 20.5745C44.1589 21.3522 43.4984 21.9002 42.7681 21.9512L38.3282 22.2288C38.7495 24.5925 38.57 27.1547 37.7237 29.6262L36.9829 31.7898C36.2342 33.9765 36.1871 36.4808 36.3505 38.5239C36.4443 39.6743 36.6039 40.83 36.8704 41.9364C36.972 42.341 36.8848 42.7929 36.6294 43.1442C36.3741 43.4955 35.9918 43.6915 35.6083 43.672L30.8878 43.432C30.5767 43.4201 30.2955 43.255 30.1077 42.9928C29.9198 42.7306 29.8453 42.3782 29.905 42.0288C30.4557 38.5356 31.7569 35.6779 32.9118 33.7077C33.5011 32.6879 34.1722 31.6704 34.9259 30.7844L35.5744 28.8903C36.3706 26.565 36.4369 24.1361 35.8492 21.9735C35.3914 20.4834 34.5993 19.1369 33.4858 18.0933L24.5674 9.73187C24.101 9.2969 23.3709 9.39099 22.9398 9.94875C22.5087 10.5065 22.5322 11.3146 22.9986 11.7495L31.9169 20.1109C32.6206 20.7734 33.155 21.6015 33.5102 22.5146L21.2719 23.2789C20.6903 23.312 20.1161 23.2358 19.572 23.0495C19.028 22.8632 18.5275 22.5715 18.0883 22.1888L1.90426 7.95886C1.35582 7.47859 1.1726 6.63304 1.43888 5.85539C1.70515 5.07774 2.36557 4.52967 3.09593 4.47867L24.6067 3.13018C25.1884 3.09708 25.7626 3.17328 26.3066 3.35957Z" fill="url(#paint1_linear_82_43)" stroke="white"/>
</g>
<defs>
<linearGradient id="paint0_linear_82_43" x1="26.9594" y1="41.8345" x2="8.45941" y2="14.8345" gradientUnits="userSpaceOnUse">
<stop stop-color="#47CE4C"/>
<stop offset="1" stop-color="#3286BB"/>
</linearGradient>
<linearGradient id="paint1_linear_82_43" x1="9.45941" y1="12.8345" x2="36.4594" y2="42.8345" gradientUnits="userSpaceOnUse">
<stop stop-color="#3286BB"/>
<stop offset="1" stop-color="#47CE4C"/>
</linearGradient>
<clipPath id="clip0_82_43">
<rect width="46" height="46" fill="white"/>
</clipPath>
</defs>
</svg>
