<svg width="300" height="300" viewBox="0 0 300 300" fill="none" xmlns="http://www.w3.org/2000/svg">
<g clip-path="url(#clip0_72_46)">
<path d="M85.2064 249.182H227.082V274.091H85.2064C66.5865 274.091 48.7292 266.218 35.563 252.204C22.3967 238.19 15 219.183 15 199.364C15 179.545 22.3967 160.538 35.563 146.523C48.7292 132.509 66.5865 124.636 85.2064 124.636H225.619C234.929 124.636 243.858 120.7 250.441 113.693C257.024 106.686 260.722 97.1822 260.722 87.2727C260.722 77.3633 257.024 67.8597 250.441 60.8526C243.858 53.8456 234.929 49.9091 225.619 49.9091H85.2064C82.1031 49.9091 79.1269 48.5969 76.9325 46.2612C74.7381 43.9256 73.5053 40.7577 73.5053 37.4545C73.5053 34.1514 74.7381 30.9835 76.9325 28.6479C79.1269 26.3122 82.1031 25 85.2064 25H225.619C241.136 25 256.017 31.5609 266.989 43.2393C277.961 54.9177 284.125 70.757 284.125 87.2727C284.125 103.788 277.961 119.628 266.989 131.306C256.017 142.985 241.136 149.545 225.619 149.545H85.2064C72.7931 149.545 60.8883 154.794 52.1108 164.137C43.3333 173.48 38.4021 186.151 38.4021 199.364C38.4021 212.576 43.3333 225.248 52.1108 234.59C60.8883 243.933 72.7931 249.182 85.2064 249.182Z" fill="url(#paint0_linear_72_46)"/>
<path d="M170.47 117.935C166.39 117.935 162.622 117.142 159.165 115.555C155.708 113.912 152.648 111.758 149.985 109.095C147.322 106.375 145.225 103.202 143.695 99.575C142.165 95.8917 141.4 91.8117 141.4 87.335C141.4 82.9717 142.165 78.9483 143.695 75.265C145.282 71.525 147.378 68.2667 149.985 65.49C152.592 62.77 155.623 60.6167 159.08 59.03C162.593 57.4433 166.39 56.65 170.47 56.65C174.777 56.65 178.885 57.6417 182.795 59.625C186.705 61.5517 190.332 64.555 193.675 68.635L185.43 75.435C183.107 72.545 180.698 70.4767 178.205 69.23C175.712 67.9267 173.133 67.275 170.47 67.275C167.92 67.275 165.54 67.785 163.33 68.805C161.177 69.825 159.222 71.2417 157.465 73.055C155.765 74.8117 154.433 76.9083 153.47 79.345C152.507 81.725 152.025 84.3883 152.025 87.335C152.025 90.2817 152.507 92.945 153.47 95.325C154.433 97.6483 155.765 99.7167 157.465 101.53C159.165 103.343 161.12 104.76 163.33 105.78C165.54 106.8 167.92 107.31 170.47 107.31C173.133 107.31 175.712 106.687 178.205 105.44C180.698 104.137 183.107 102.04 185.43 99.15L193.675 105.95C190.332 110.03 186.705 113.062 182.795 115.045C178.885 116.972 174.777 117.935 170.47 117.935ZM201.352 117V57.5H223.962C227.078 57.5 229.798 58.2933 232.122 59.88C234.445 61.41 236.23 63.45 237.477 66C238.78 68.55 239.432 71.3267 239.432 74.33C239.432 76.1433 239.148 78.0133 238.582 79.94C238.015 81.8667 237.165 83.6517 236.032 85.295C237.958 86.8817 239.46 88.865 240.537 91.245C241.613 93.625 242.152 96.175 242.152 98.895C242.152 101.105 241.727 103.287 240.877 105.44C240.083 107.593 238.95 109.548 237.477 111.305C236.06 113.005 234.388 114.393 232.462 115.47C230.592 116.49 228.58 117 226.427 117H201.352ZM211.807 82.15H223.707C224.727 82.15 225.633 81.7533 226.427 80.96C227.22 80.1667 227.843 79.175 228.297 77.985C228.807 76.795 229.062 75.5767 229.062 74.33C229.062 72.6867 228.608 71.2417 227.702 69.995C226.795 68.7483 225.548 68.125 223.962 68.125H211.807V82.15ZM211.807 106.375H226.427C227.333 106.375 228.183 106.007 228.977 105.27C229.77 104.477 230.422 103.513 230.932 102.38C231.442 101.247 231.697 100.085 231.697 98.895C231.697 97.0817 231.215 95.5517 230.252 94.305C229.345 93.0017 228.155 92.35 226.682 92.35H211.807V106.375Z" fill="#3A3D71"/>
<path d="M73.25 236L73.335 176.5H95.52C98.6367 176.5 101.357 177.378 103.68 179.135C106.003 180.835 107.788 183.073 109.035 185.85C110.338 188.57 110.99 191.488 110.99 194.605C110.99 196.815 110.565 198.997 109.715 201.15C108.922 203.303 107.817 205.258 106.4 207.015C104.983 208.772 103.312 210.188 101.385 211.265C99.515 212.285 97.475 212.795 95.265 212.795H83.45V236H73.25ZM83.45 202.765H94.84C96.4833 202.765 97.9 201.943 99.09 200.3C100.337 198.6 100.96 196.702 100.96 194.605C100.96 192.282 100.308 190.355 99.005 188.825C97.7583 187.295 96.455 186.53 95.095 186.53H83.45V202.765ZM126.662 236.425C122.355 236.198 119.097 234.98 116.887 232.77C114.677 230.503 113.572 227.387 113.572 223.42C113.572 220.53 114.309 218.065 115.782 216.025C117.255 213.928 119.21 212.285 121.647 211.095C124.084 209.905 126.775 209.168 129.722 208.885C132.725 208.602 135.757 208.8 138.817 209.48V206.845C138.817 205.032 138.08 203.728 136.607 202.935C135.134 202.142 133.32 201.773 131.167 201.83C129.07 201.887 126.945 202.312 124.792 203.105C122.695 203.842 120.995 204.918 119.692 206.335L113.997 200.13C116.15 198.033 118.7 196.39 121.647 195.2C124.594 194.01 127.625 193.33 130.742 193.16C133.915 192.99 136.89 193.358 139.667 194.265C142.5 195.172 144.824 196.645 146.637 198.685C148.054 200.272 148.847 202.368 149.017 204.975C149.187 207.582 149.272 210.443 149.272 213.56V236H138.902V232.09C137.145 233.733 135.19 234.895 133.037 235.575C130.884 236.198 128.759 236.482 126.662 236.425ZM138.562 224.015V216.705C132.669 216.252 128.56 216.62 126.237 217.81C123.97 219 122.837 220.842 122.837 223.335C122.837 224.922 123.375 226.083 124.452 226.82C125.585 227.5 126.974 227.84 128.617 227.84C130.317 227.783 132.045 227.443 133.802 226.82C135.615 226.14 137.202 225.205 138.562 224.015ZM163.107 216.705V202.935H156.902V193.5H163.107V176.5H173.137V193.5H179.767V202.935H173.137V216.705C173.137 219.255 173.335 221.182 173.732 222.485C174.129 223.788 174.667 224.695 175.347 225.205C176.084 225.658 176.877 225.913 177.727 225.97C178.634 226.027 179.54 226.055 180.447 226.055H181.892V236.17H180.617C177.5 236.17 174.837 235.943 172.627 235.49C170.417 235.037 168.604 234.158 167.187 232.855C165.77 231.495 164.722 229.54 164.042 226.99C163.419 224.383 163.107 220.955 163.107 216.705ZM226.434 236H216.234V211.52C216.234 208.63 215.469 206.533 213.939 205.23C212.466 203.927 210.426 203.275 207.819 203.275C205.439 203.275 203.512 204.04 202.039 205.57C200.622 207.043 199.914 208.602 199.914 210.245V236H189.714V176.5H199.914V195.795C201.274 194.662 202.889 193.925 204.759 193.585C206.686 193.188 208.669 193.075 210.709 193.245C215.866 193.868 219.776 195.852 222.439 199.195C225.102 202.482 226.434 206.59 226.434 211.52V236Z" fill="#3A3D71"/>
<path d="M288.396 252.518C290.037 257.575 290.191 262.997 288.839 268.139C287.487 273.281 284.686 277.926 280.77 281.522C276.854 285.118 271.987 287.513 266.749 288.423C261.511 289.332 256.122 288.718 251.222 286.653C246.323 284.588 242.12 281.159 239.114 276.774C236.107 272.389 234.424 267.233 234.264 261.919C234.103 256.605 235.473 251.356 238.21 246.798C240.946 242.24 244.935 238.564 249.701 236.207" stroke="#3286BB" stroke-width="4" stroke-linecap="round" stroke-linejoin="round"/>
<path d="M249.673 251.824C248.128 253.881 247.122 256.291 246.747 258.836C246.372 261.381 246.64 263.979 247.526 266.394C248.412 268.809 249.888 270.964 251.82 272.662C253.752 274.361 256.078 275.549 258.587 276.118C261.095 276.688 263.706 276.62 266.182 275.922C268.658 275.224 270.92 273.918 272.762 272.122C274.603 270.326 275.966 268.098 276.727 265.641C277.487 263.183 277.62 260.575 277.115 258.052" stroke="#3286BB" stroke-width="4" stroke-linecap="round" stroke-linejoin="round"/>
<path d="M276.252 266.594L276.247 266.615L276.239 266.636C275.911 267.547 275.136 268.243 274.126 268.739C273.113 269.236 271.815 269.555 270.34 269.69C267.389 269.959 263.644 269.498 259.839 268.126C256.034 266.754 252.856 264.72 250.756 262.629C249.706 261.584 248.911 260.51 248.447 259.481C247.986 258.455 247.834 257.424 248.162 256.514L248.17 256.493L248.179 256.473L253.687 244.583L253.978 243.955L254.483 244.429L262.967 252.392C263.58 252.967 264.287 253.398 265.05 253.673C265.813 253.948 266.639 254.069 267.469 254.016L267.47 254.016L279.084 253.298L279.775 253.255L279.598 253.925L276.252 266.594Z" fill="#3A3D71" stroke="white"/>
<path d="M273.605 233.171L273.607 233.172L289.776 247.423L289.776 247.423L289.779 247.426C290.496 248.067 290.705 249.125 290.384 250.064C290.063 251.002 289.249 251.71 288.289 251.777L288.285 251.777L284.394 252.021C284.711 254.312 284.491 256.756 283.683 259.115L282.942 261.279C282.225 263.372 282.174 265.797 282.335 267.811C282.427 268.943 282.583 270.071 282.842 271.144C282.979 271.695 282.86 272.297 282.52 272.765C282.179 273.234 281.643 273.528 281.069 273.499L276.355 273.259C276.353 273.259 276.352 273.259 276.351 273.259C275.87 273.239 275.454 272.983 275.187 272.611C274.914 272.231 274.819 271.742 274.897 271.275C275.46 267.707 276.789 264.792 277.966 262.783C278.548 261.776 279.215 260.759 279.969 259.861L280.587 258.056C281.351 255.825 281.413 253.501 280.855 251.44C280.419 250.026 279.671 248.761 278.63 247.785L278.63 247.785L269.712 239.425C269.712 239.425 269.712 239.424 269.712 239.424C269.496 239.224 269.103 239.217 268.821 239.582C268.52 239.972 268.58 240.482 268.825 240.711L268.826 240.712L277.745 249.073L277.746 249.074C278.509 249.793 279.083 250.685 279.462 251.66L279.71 252.298L279.027 252.341L266.789 253.105L266.786 253.105C266.142 253.142 265.503 253.058 264.896 252.85C264.289 252.642 263.732 252.317 263.246 251.893L263.244 251.891L247.061 237.662C246.334 237.026 246.132 235.955 246.452 235.021C246.773 234.082 247.587 233.374 248.547 233.307L248.551 233.307L270.061 231.958L270.061 231.958L270.064 231.958C270.708 231.922 271.347 232.006 271.955 232.214C272.562 232.422 273.118 232.747 273.605 233.171Z" fill="#3A3D71" stroke="white"/>
</g>
<defs>
<linearGradient id="paint0_linear_72_46" x1="74.5" y1="39" x2="224.5" y2="276" gradientUnits="userSpaceOnUse">
<stop stop-color="#3286BB"/>
<stop offset="1" stop-color="#47CE4C"/>
</linearGradient>
<clipPath id="clip0_72_46">
<rect width="300" height="300" fill="white"/>
</clipPath>
</defs>
</svg>
