<svg width="64" height="64" viewBox="0 0 64 64" fill="none" xmlns="http://www.w3.org/2000/svg">
<path d="M16.6292 55.1H50.234V61H16.6292C12.2188 61 7.98915 59.1352 4.87057 55.8158C1.752 52.4964 0 47.9943 0 43.3C0 38.6057 1.752 34.1036 4.87057 30.7842C7.98915 27.4648 12.2188 25.6 16.6292 25.6H49.8875C52.0927 25.6 54.2076 24.6676 55.7668 23.0079C57.3261 21.3482 58.2021 19.0972 58.2021 16.75C58.2021 14.4028 57.3261 12.1518 55.7668 10.4921C54.2076 8.83241 52.0927 7.9 49.8875 7.9H16.6292C15.8941 7.9 15.1892 7.5892 14.6694 7.03596C14.1497 6.48273 13.8577 5.73239 13.8577 4.95C13.8577 4.16761 14.1497 3.41727 14.6694 2.86404C15.1892 2.3108 15.8941 2 16.6292 2H49.8875C53.5628 2 57.0876 3.55401 59.6864 6.32017C62.2852 9.08634 63.7452 12.8381 63.7452 16.75C63.7452 20.6619 62.2852 24.4137 59.6864 27.1798C57.0876 29.946 53.5628 31.5 49.8875 31.5H16.6292C13.689 31.5 10.8692 32.7432 8.79011 34.9561C6.71106 37.1691 5.54306 40.1704 5.54306 43.3C5.54306 46.4296 6.71106 49.4309 8.79011 51.6439C10.8692 53.8568 13.689 55.1 16.6292 55.1Z" fill="url(#paint0_linear_79_23)"/>
<defs>
<linearGradient id="paint0_linear_79_23" x1="14.0932" y1="5.31606" x2="49.6224" y2="61.4522" gradientUnits="userSpaceOnUse">
<stop stop-color="#3286BB"/>
<stop offset="1" stop-color="#47CE4C"/>
</linearGradient>
</defs>
</svg>
