<svg width="300" height="300" viewBox="0 0 300 300" fill="none" xmlns="http://www.w3.org/2000/svg">
<g clip-path="url(#clip0_72_46)">
<path d="M85.2064 249.182H227.082V274.091H85.2064C66.5865 274.091 48.7292 266.218 35.563 252.204C22.3967 238.19 15 219.183 15 199.364C15 179.545 22.3967 160.538 35.563 146.523C48.7292 132.509 66.5865 124.636 85.2064 124.636H225.619C234.929 124.636 243.858 120.7 250.441 113.693C257.024 106.686 260.722 97.1822 260.722 87.2727C260.722 77.3633 257.024 67.8597 250.441 60.8526C243.858 53.8456 234.929 49.9091 225.619 49.9091H85.2064C82.1031 49.9091 79.1269 48.5969 76.9325 46.2612C74.7381 43.9256 73.5053 40.7577 73.5053 37.4545C73.5053 34.1514 74.7381 30.9835 76.9325 28.6479C79.1269 26.3122 82.1031 25 85.2064 25H225.619C241.136 25 256.017 31.5609 266.989 43.2393C277.961 54.9177 284.125 70.757 284.125 87.2727C284.125 103.788 277.961 119.628 266.989 131.306C256.017 142.985 241.136 149.545 225.619 149.545H85.2064C72.7931 149.545 60.8883 154.794 52.1108 164.137C43.3333 173.48 38.4021 186.151 38.4021 199.364C38.4021 212.576 43.3333 225.248 52.1108 234.59C60.8883 243.933 72.7931 249.182 85.2064 249.182Z" fill="url(#paint0_linear_72_46)"/>
<path d="M170.47 117.935C166.39 117.935 162.622 117.142 159.165 115.555C155.708 113.912 152.648 111.758 149.985 109.095C147.322 106.375 145.225 103.202 143.695 99.575C142.165 95.8917 141.4 91.8117 141.4 87.335C141.4 82.9717 142.165 78.9483 143.695 75.265C145.282 71.525 147.378 68.2667 149.985 65.49C152.592 62.77 155.623 60.6167 159.08 59.03C162.593 57.4433 166.39 56.65 170.47 56.65C174.777 56.65 178.885 57.6417 182.795 59.625C186.705 61.5517 190.332 64.555 193.675 68.635L185.43 75.435C183.107 72.545 180.698 70.4767 178.205 69.23C175.712 67.9267 173.133 67.275 170.47 67.275C167.92 67.275 165.54 67.785 163.33 68.805C161.177 69.825 159.222 71.2417 157.465 73.055C155.765 74.8117 154.433 76.9083 153.47 79.345C152.507 81.725 152.025 84.3883 152.025 87.335C152.025 90.2817 152.507 92.945 153.47 95.325C154.433 97.6483 155.765 99.7167 157.465 101.53C159.165 103.343 161.12 104.76 163.33 105.78C165.54 106.8 167.92 107.31 170.47 107.31C173.133 107.31 175.712 106.687 178.205 105.44C180.698 104.137 183.107 102.04 185.43 99.15L193.675 105.95C190.332 110.03 186.705 113.062 182.795 115.045C178.885 116.972 174.777 117.935 170.47 117.935ZM201.352 117V57.5H223.962C227.078 57.5 229.798 58.2933 232.122 59.88C234.445 61.41 236.23 63.45 237.477 66C238.78 68.55 239.432 71.3267 239.432 74.33C239.432 76.1433 239.148 78.0133 238.582 79.94C238.015 81.8667 237.165 83.6517 236.032 85.295C237.958 86.8817 239.46 88.865 240.537 91.245C241.613 93.625 242.152 96.175 242.152 98.895C242.152 101.105 241.727 103.287 240.877 105.44C240.083 107.593 238.95 109.548 237.477 111.305C236.06 113.005 234.388 114.393 232.462 115.47C230.592 116.49 228.58 117 226.427 117H201.352ZM211.807 82.15H223.707C224.727 82.15 225.633 81.7533 226.427 80.96C227.22 80.1667 227.843 79.175 228.297 77.985C228.807 76.795 229.062 75.5767 229.062 74.33C229.062 72.6867 228.608 71.2417 227.702 69.995C226.795 68.7483 225.548 68.125 223.962 68.125H211.807V82.15ZM211.807 106.375H226.427C227.333 106.375 228.183 106.007 228.977 105.27C229.77 104.477 230.422 103.513 230.932 102.38C231.442 101.247 231.697 100.085 231.697 98.895C231.697 97.0817 231.215 95.5517 230.252 94.305C229.345 93.0017 228.155 92.35 226.682 92.35H211.807V106.375Z" fill="#3A3D71"/>
<path d="M92.49 176.5C97.41 173.14 100.77 171.1 102.57 170.38C104.37 169.6 106.47 169.21 108.87 169.21C111.33 169.21 113.22 170.05 114.54 171.73C115.86 173.41 116.52 175.81 116.52 178.93C116.52 184.51 114.72 190.51 111.12 196.93C107.52 203.35 103.02 208.75 97.62 213.13C92.22 217.45 87.12 219.61 82.32 219.61C81.12 219.61 79.74 219.55 78.18 219.43C75.24 225.67 72.57 230.38 70.17 233.56C67.77 236.74 65.37 238.33 62.97 238.33C61.47 238.33 60.3 237.79 59.46 236.71C58.62 235.63 58.2 234.13 58.2 232.21C58.2 226.03 61.05 217.78 66.75 207.46C72.45 197.08 78.72 188.77 85.56 182.53C86.52 178.57 87 175.69 87 173.89C87 172.03 86.94 170.62 86.82 169.66L93.3 168.58C93.3 169 93.03 171.64 92.49 176.5ZM71.88 212.95L74.4 214.21C78.18 206.83 81.36 198.55 83.94 189.37C78.42 196.27 73.89 203.29 70.35 210.43C66.81 217.57 65.04 223.06 65.04 226.9C65.04 228.04 65.4 228.61 66.12 228.61C66.66 228.61 67.62 227.5 69 225.28C70.38 223 71.55 220.69 72.51 218.35C71.73 217.99 70.98 217.45 70.26 216.73L71.88 212.95ZM80.07 215.47L81.78 215.56C87.6 215.56 93.06 212.5 98.16 206.38C101.04 202.84 103.47 198.79 105.45 194.23C107.49 189.67 108.51 185.8 108.51 182.62C108.51 180.88 108.03 179.5 107.07 178.48C106.17 177.46 104.91 176.95 103.29 176.95C100.35 176.95 96.45 178.57 91.59 181.81C90.51 189.91 86.67 201.13 80.07 215.47ZM144.51 216.91L146.58 218.44C145.74 220.24 144.18 221.95 141.9 223.57C139.68 225.19 137.64 226 135.78 226C132.24 226 130.47 224.14 130.47 220.42C130.47 218.68 130.92 216.61 131.82 214.21L128.49 217.63C125.25 220.93 122.43 223.15 120.03 224.29C117.69 225.43 115.38 226 113.1 226C110.82 226 109.08 225.37 107.88 224.11C106.74 222.79 106.17 220.99 106.17 218.71C106.17 214.51 107.79 210.37 111.03 206.29C114.27 202.15 118.41 198.79 123.45 196.21C128.49 193.63 133.53 192.31 138.57 192.25L138.75 195.22L134.97 196.03C129.51 197.23 124.68 199.63 120.48 203.23C116.34 206.83 114.27 210.43 114.27 214.03C114.27 217.57 115.71 219.34 118.59 219.34C121.29 219.34 124.62 217.45 128.58 213.67C132.54 209.89 135.84 205.45 138.48 200.35L142.26 202.6C138.54 210.1 136.68 214.87 136.68 216.91C136.68 217.75 136.95 218.47 137.49 219.07C138.09 219.61 138.66 219.88 139.2 219.88C139.8 219.88 140.19 219.85 140.37 219.79C140.55 219.73 140.73 219.67 140.91 219.61C141.09 219.49 141.3 219.34 141.54 219.16C141.84 218.98 142.08 218.8 142.26 218.62C142.5 218.44 142.86 218.17 143.34 217.81C143.82 217.45 144.21 217.15 144.51 216.91ZM169.148 215.92L171.128 218.17C169.628 220.51 167.798 222.34 165.638 223.66C163.538 224.98 161.408 225.64 159.248 225.64C157.088 225.64 155.378 225.04 154.118 223.84C152.858 222.58 152.228 220.87 152.228 218.71C152.228 213.67 154.118 206.71 157.898 197.83C154.838 198.31 151.778 199.03 148.718 199.99L148.088 196.48L147.998 196.39C150.998 195.13 154.928 194.11 159.788 193.33C160.268 192.43 161.348 190.24 163.028 186.76C166.388 179.86 168.788 175.39 170.228 173.35L174.098 174.88C173.498 176.2 172.448 178.42 170.947 181.54C169.448 184.6 167.768 188.08 165.908 191.98C168.608 191.8 170.738 191.71 172.298 191.71C173.858 191.71 175.058 191.95 175.898 192.43V196.3C175.058 196.12 173.828 196.03 172.208 196.03C170.648 196.03 167.828 196.3 163.748 196.84C160.208 204.76 158.438 210.52 158.438 214.12C158.438 215.5 158.858 216.64 159.698 217.54C160.598 218.44 161.768 218.89 163.208 218.89C164.708 218.89 166.688 217.9 169.148 215.92ZM212.535 219.43L214.605 221.14C212.085 225.34 208.815 227.44 204.795 227.44C201.315 227.44 199.575 225.73 199.575 222.31C199.575 220.33 200.415 217.18 202.095 212.86C203.835 208.48 204.705 205.6 204.705 204.22C204.705 202.48 203.595 201.61 201.375 201.61C199.155 201.61 196.125 204.01 192.285 208.81C188.505 213.55 185.325 219.07 182.745 225.37L177.435 223.48C180.555 207.82 188.715 186.85 201.915 160.57L206.325 162.01C199.665 175.33 194.895 185.92 192.015 193.78C189.015 201.94 186.765 208.69 185.265 214.03C189.885 206.41 193.845 201.13 197.145 198.19C200.505 195.25 203.415 193.78 205.875 193.78C210.315 193.78 212.535 195.37 212.535 198.55C212.535 200.53 211.425 204.07 209.205 209.17C206.985 214.27 205.875 217.66 205.875 219.34C205.875 221.02 206.685 221.86 208.305 221.86C209.145 221.86 210.555 221.05 212.535 219.43Z" fill="#3286BB"/>
<path d="M288.396 252.518C290.037 257.575 290.191 262.997 288.839 268.139C287.487 273.281 284.686 277.926 280.77 281.522C276.854 285.118 271.987 287.513 266.749 288.423C261.511 289.332 256.122 288.718 251.222 286.653C246.323 284.588 242.12 281.159 239.114 276.774C236.107 272.389 234.424 267.233 234.264 261.919C234.103 256.604 235.473 251.356 238.21 246.798C240.946 242.24 244.935 238.564 249.701 236.207" stroke="#3286BB" stroke-width="4" stroke-linecap="round" stroke-linejoin="round"/>
<path d="M249.673 251.824C248.128 253.881 247.122 256.291 246.747 258.836C246.372 261.381 246.64 263.979 247.526 266.394C248.412 268.809 249.888 270.964 251.82 272.662C253.752 274.361 256.078 275.549 258.587 276.118C261.095 276.688 263.706 276.62 266.182 275.922C268.658 275.224 270.92 273.918 272.762 272.122C274.603 270.326 275.966 268.098 276.727 265.641C277.487 263.183 277.62 260.575 277.115 258.052" stroke="#3286BB" stroke-width="4" stroke-linecap="round" stroke-linejoin="round"/>
<path d="M274.558 266.623L274.552 266.646L274.544 266.667C274.238 267.515 273.502 268.149 272.555 268.589C271.603 269.031 270.382 269.307 268.996 269.411C266.22 269.621 262.69 269.154 259.094 267.857C255.497 266.56 252.481 264.668 250.478 262.735C249.478 261.77 248.713 260.779 248.263 259.831C247.814 258.887 247.652 257.93 247.957 257.082L247.965 257.06L247.975 257.04L253.01 246.276L253.298 245.661L253.8 246.118L261.877 253.477C262.46 254.007 263.13 254.407 263.849 254.667C264.57 254.927 265.347 255.047 266.125 255.009L266.126 255.009L277.042 254.498L277.72 254.466L277.549 255.123L274.558 266.623Z" fill="#3A3D71" stroke="white"/>
<path d="M273.605 233.17L273.607 233.172L289.776 247.423L289.776 247.423L289.779 247.425C290.496 248.067 290.705 249.125 290.384 250.064C290.063 251.002 289.249 251.71 288.289 251.777L288.285 251.777L284.394 252.021C284.711 254.312 284.491 256.755 283.683 259.115L282.942 261.279C282.225 263.371 282.174 265.797 282.335 267.811C282.427 268.942 282.583 270.071 282.842 271.144C282.979 271.695 282.86 272.297 282.52 272.765C282.179 273.234 281.643 273.528 281.069 273.499L276.355 273.259C276.353 273.259 276.352 273.259 276.351 273.259C275.87 273.239 275.454 272.983 275.187 272.611C274.914 272.231 274.819 271.742 274.897 271.275C275.46 267.707 276.789 264.792 277.966 262.783C278.548 261.776 279.215 260.759 279.969 259.861L280.587 258.055C281.351 255.825 281.413 253.501 280.855 251.44C280.419 250.026 279.671 248.761 278.63 247.785L278.63 247.785L269.712 239.425C269.712 239.425 269.712 239.425 269.712 239.424C269.496 239.223 269.103 239.217 268.821 239.582C268.52 239.972 268.58 240.482 268.825 240.711L268.826 240.712L277.745 249.073L277.746 249.074C278.509 249.793 279.083 250.685 279.462 251.66L279.71 252.298L279.027 252.341L266.789 253.105L266.786 253.105C266.142 253.142 265.503 253.058 264.896 252.85C264.289 252.642 263.732 252.317 263.246 251.893L263.244 251.891L247.061 237.662C247.061 237.662 247.06 237.662 247.06 237.662C246.334 237.025 246.132 235.955 246.452 235.021C246.773 234.082 247.587 233.374 248.547 233.307L248.551 233.307L270.061 231.958L270.061 231.958L270.064 231.958C270.708 231.922 271.347 232.006 271.955 232.214C272.562 232.422 273.118 232.747 273.605 233.17L273.605 233.17Z" fill="#3A3D71" stroke="white"/>
</g>
<defs>
<linearGradient id="paint0_linear_72_46" x1="74.5" y1="39" x2="224.5" y2="276" gradientUnits="userSpaceOnUse">
<stop stop-color="#3286BB"/>
<stop offset="1" stop-color="#47CE4C"/>
</linearGradient>
<clipPath id="clip0_72_46">
<rect width="300" height="300" fill="white"/>
</clipPath>
</defs>
</svg>
